<svg width="48" height="49" viewBox="0 0 48 49" fill="none" xmlns="http://www.w3.org/2000/svg">
<path opacity="0.4" d="M34 24.5001C34 30.1379 29.5228 34.7084 24 34.7084C18.4772 34.7084 14 30.1379 14 24.5001C14 18.8622 18.4772 14.2917 24 14.2917C29.5228 14.2917 34 18.8622 34 24.5001Z" fill="#FEDF6F"/>
<path d="M34 24.5001C34 30.1379 29.5228 34.7084 24 34.7084C18.4772 34.7084 14 30.1379 14 24.5001C14 18.8622 18.4772 14.2917 24 14.2917C29.5228 14.2917 34 18.8622 34 24.5001Z" stroke="#FEDF6F" stroke-width="3"/>
<path d="M24 4.08325C23.2454 4.7638 22.189 6.53325 24 8.16658M24 40.8332C24.7546 41.5137 25.811 43.2832 24 44.9166M39 9.19295C37.937 9.1258 35.8506 9.64257 36.0084 12.2468M10.9915 35.7291C11.0573 36.8142 10.5511 38.9441 8 38.783M10.0054 9.18742C9.93958 10.2736 10.4463 12.4057 13 12.2444M36 35.7344C37.063 35.6709 39.1494 36.1595 38.9916 38.6217M44 24.4999C43.3334 23.7296 41.6 22.6512 40 24.4999M8 23.4791C7.33334 24.2494 5.6 25.3278 4 23.4791" stroke="#FEDF6F" stroke-width="3" stroke-linecap="round"/>
</svg>
